<svg width="14" height="14" viewBox="0 0 14 14" fill="none" xmlns="http://www.w3.org/2000/svg">
<path fill-rule="evenodd" clip-rule="evenodd" d="M13.4001 7C13.4001 8.69738 12.7258 10.3252 11.5256 11.5255C10.3253 12.7257 8.69748 13.4 7.0001 13.4C5.30271 13.4 3.67485 12.7257 2.47461 11.5255C1.27438 10.3252 0.600098 8.69738 0.600098 7C0.600098 5.30261 1.27438 3.67475 2.47461 2.47452C3.67485 1.27428 5.30271 0.599998 7.0001 0.599998C8.69748 0.599998 10.3253 1.27428 11.5256 2.47452C12.7258 3.67475 13.4001 5.30261 13.4001 7ZM8.6001 4.6C8.6001 5.02434 8.43153 5.43131 8.13147 5.73137C7.83141 6.03143 7.42444 6.2 7.0001 6.2C6.57575 6.2 6.16879 6.03143 5.86873 5.73137C5.56867 5.43131 5.4001 5.02434 5.4001 4.6C5.4001 4.17565 5.56867 3.76869 5.86873 3.46863C6.16879 3.16857 6.57575 3 7.0001 3C7.42444 3 7.83141 3.16857 8.13147 3.46863C8.43153 3.76869 8.6001 4.17565 8.6001 4.6ZM7.0001 7.8C6.23418 7.79984 5.48432 8.01959 4.83963 8.43312C4.19494 8.84665 3.68253 9.43658 3.3633 10.1328C3.81344 10.6565 4.37151 11.0766 4.99925 11.3644C5.62699 11.6522 6.30954 11.8008 7.0001 11.8C7.69065 11.8008 8.3732 11.6522 9.00094 11.3644C9.62868 11.0766 10.1868 10.6565 10.6369 10.1328C10.3177 9.43658 9.80525 8.84665 9.16056 8.43312C8.51588 8.01959 7.76602 7.79984 7.0001 7.8Z" fill="#90A4AE"/>
</svg>
